<?xml version="1.0" encoding="UTF-8"?>
<svg xmlns="http://www.w3.org/2000/svg" version="1.1" viewBox="0 0 1920 1080">
  <defs>
    <style>
      .cls-1 {
        fill: #bdd135;
      }

      .cls-2 {
        fill: #4ba24b;
      }

      .cls-3 {
        fill: #1d89bd;
      }

      .cls-4 {
        font-family: Heebo-ExtraBold, Heebo;
        font-size: 97.31px;
        font-weight: 700;
        letter-spacing: .37em;
      }

      .cls-5 {
        fill: #48a348;
      }

      .cls-6 {
        fill: #bad032;
      }

      .cls-7 {
        fill: #1c89c0;
      }
    </style>
  </defs>
  <!-- Generator: Adobe Illustrator 28.7.1, SVG Export Plug-In . SVG Version: 1.2.0 Build 142)  -->
  <g>
    <g id="Layer_1">
      <path class="cls-6" d="M1506.76,764.22c-16.53-.49-29.96-2.68-43.35-5.12-2.91-.53-5.82-1.1-8.66-1.9-3.09-.87-4.58-3.5-3.49-6.42,9-23.98,17.66-48.1,30.5-70.42,1.38-2.4,2.97-4.66,4.94-6.63,4.6-4.62,10.37-3.9,14.15,1.94,3.02,4.66,4.82,9.91,6.5,15.16,5.62,17.57,9.16,35.66,13.33,53.59.2.86.45,1.72.66,2.58,1.32,5.32,1.31,5.28,6.62,4.16,23.54-4.94,45.15-14.55,65.56-27.03,4.15-2.54,6.74-2.41,8.77.6,1.83,2.72,1.15,5.3-2.16,7.43-8.14,5.24-16.65,9.82-25.41,13.92-16.87,7.9-34.33,14-52.88,16.48-5.94.8-11.88,2.09-15.08,1.65ZM1498.58,753.3c3.52-.22,7.26.15,10.98-.79,1.97-.5,2.21-1.3,1.78-3.12-2.2-9.28-4.2-18.61-6.4-27.89-2.82-11.87-5.58-23.76-10.19-35.11-.46-1.14-.57-2.99-1.88-3.13-1.33-.15-1.77,1.63-2.42,2.69-4.12,6.74-7.41,13.89-10.63,21.08-5.71,12.76-10.84,25.75-15.76,38.83-.52,1.38-1.37,2.63,1.21,3.11,10.96,2.04,21.94,3.83,33.32,4.33Z"/>
      <g>
        <path class="cls-7" d="M1445.24,527.47c-9.14.55-16.15.53-23.02,1.49-8.55,1.19-16.45,1.35-22.86-5.73-1.14-1.26-3.31-2.29-4.99-2.28-17.46.12-35.01-.52-51.97,4.85-1.56.49-2.97,1.11-3.55,4.27,10.39,2.54,17.52,9.84,23.32,18.73,12.86,19.68,9.83,40.05-8.39,54.9-18.32,14.93-38.34,26.05-62.75,26.89-12.68.43-15.51-2.57-14.32-14.81,1.52-15.57,1.53-15.47,17.5-17.42,18.91-2.31,35.19-10.34,49.26-23.03,4.54-4.09,4.28-7-1.38-9.92-11.91-6.15-24.99-6.87-37.85-8.77-8.76-1.3-18.99-1.29-21.89-11.83-3.18-11.55.61-21.95,9.78-29.94,2.84-2.47,6.04-4.87,9.5-6.23,26.6-10.46,53.36-20.82,82.25-22.68,9.91-.64,21.36-3.14,28.09,8.52,1.14,1.97,4.02,1.93,6.2,1.61,15.78-2.32,32.53,1.19,47.21-7.81.96-.59,2.59-.77,3.66-.42,18.84,6.18,37.03-2.67,55.66-2.54,9.45.07,17.03.85,21.83,9.55,2.93,5.32,7.04,6.79,12.75,5.04,19.22-5.89,39.2-7.88,58.91-11.23,2.19-.37,4.4-.72,6.62-.79,9.27-.29,17.11,4.21,19.87,12.09,2.9,8.29-5.67,12.33-11.64,16.24-3.99,2.61-8.79,3.26-13.5,4.24-16.15,3.36-32.2,7.22-48.25,11.03-3.13.74-6.43,2.14-5.75,6.26.76,4.66,4.69,3.29,7.65,3.22,3.49-.09,7.13,0,10.43-.95,13.61-3.93,20.85,4.43,27.89,13.63,3.07,4.01.71,6.2-2.2,8.6-13.27,10.94-28.55,14.91-45.44,12.66-10.42-1.39-18,2.25-23.05,11.32-1.36,2.44-4.37,4.88-3.17,7.57,1.47,3.29,5.49,2.86,8.56,2.53,15.46-1.67,31.09-1.93,46.27-5.83,10.43-2.68,18.95,2.03,22.26,11.88,1.24,3.7-.64,6.06-2.77,8.45-6.31,7.08-14.03,11.9-23.4,13.74-20.65,4.04-41.49,6.25-62.55,5.43-15.72-.61-22.11-7.1-23.48-22.86-.97-11.13,1.34-21.39,7.63-30.69,4.08-6.04,7.43-12.82,12.48-17.9,10.68-10.73,8.05-22.72,5.21-35.08-.92-4-3.3-6.02-7.47-5.66-9.49.83-19,1.43-28.3,3.77-5.86,1.48-10.63,4.6-13.67,9.63-13.11,21.67-26.12,43.41-38.86,65.3-3.69,6.33-6.67,12.79.89,19.48,4.01,3.54.99,8.32-2.12,11.76-4.56,5.04-10.05,6.35-16.35,3.41-9.63-4.49-15.4-16.49-13.71-29.01,1.41-10.51,5.5-20.1,10.75-29.24,8.32-14.49,16.69-28.94,26.21-45.44Z"/>
        <path class="cls-3" d="M697.56,563.99c-16.27,47.35,12.01,95.46,63.69,108.29,2.44.61,4.96.88,7.44,1.3,27.34,5.14,51.26-2.12,72.3-19.8,19.31-9.68,32.94-25.04,43.65-43.32,1.06-.67,2.45-1.11,3.12-2.05,26.62-37.59,29.93-95.33-2.93-132.06-17.01-19.02-37.94-32.44-62.22-40.45-7.96-2.62-16.16-4.57-24.79-2.89,4.32,4.76,8.27,9.11,12.22,13.46,6.07,5.88,11.98,11.93,18.27,17.56,3.82,3.42,3.28,5.97.04,9.36-3.44,3.6-6.1,3.25-9.5-.03-4.64-4.48-7.81-10.88-15.08-12.14-8.62-8.86-17.09-17.88-25.92-26.53-5.89-5.77-5.39-10.07.76-15.62,13.64-12.31,27.86-24.04,40.21-37.72,4.66-3.01,8.83-3.2,12.36,1.82,3.93,5.58-1.47,6.94-4.21,9.5-9.19,8.57-18.39,17.13-28.97,26.98,15.92.54,30.05.74,43.95,3.77,59.12,12.91,99.34,62.03,97.77,120.33-.76,28-10.32,53.24-26.3,76.15-3.99,5.71-8.09,11.35-12.15,17.02-5.91,2.79-9.46,8.27-14.22,12.38-22.66,19.57-49.41,30.29-78.31,36.54-27.06,1.52-53.1-2.64-77.63-14.37-10.78-5.15-21.22-11.02-31.82-16.56-14.88-13.82-27.93-29.02-30.57-49.98-4.67-37.06,6.95-69.12,31.74-96.78,14.18-15.81,32.42-26.03,50.49-36.48,6.7-.91,12.66-5.51,20.92-4.32-11.72,12.65-27.37,19.79-36.2,33.99,0,0,.15-.04.15-.04-1.66-.29-3.07-.08-3.65,1.81-1.65,1.9-3.32,3.78-4.94,5.69-13.86,16.28-25.86,33.55-29.66,55.19Z"/>
        <path class="cls-7" d="M983.61,589.74c17.47-8.87,29.3-21.08,40.07-34.38,12.96-16.01,24.93-32.81,38.78-48.12,7.59-8.39,9.11-8.22,17.33-.18,8.08,7.91,9.66,16.16,4.68,26.52-5.89,12.25-10.94,24.95-13.85,38.3-.7,3.21-2.04,7.61,1.45,9.63,3.03,1.75,5.69-1.77,8.22-3.43,7.6-4.98,13.1-11.99,17.77-19.57,13.3-21.57,26.29-43.32,39.62-64.87,5.77-9.33,8.29-9.44,15.34-1.23,8.24,9.59,10.93,20.97,4.34,31.67-17.75,28.79-32.39,59.73-56.11,84.56-8.24,8.63-16.28,17.59-29.2,20.21-9.07,1.84-14.82-.31-18.13-8.96-2.26-5.91-4.87-11.68-7.21-17.56-4.96-12.48-4.91-12.46-15.27-4.54-6.3,4.82-12.66,9.57-19.02,14.31-6.14,4.58-12.8,8.27-19.91,11.11-25.83,10.3-46.39-4.92-44.15-32.73.25-3.13.64-6.42,1.81-9.3,8.9-22,16.38-44.62,28.57-65.17,2.74-4.62,5.5-9.35,8.98-13.41,12.4-14.43,14.3-18.91,27.72-.82,4.04,5.44,3.09,9.75.55,14.8-7.26,14.43-14.52,28.86-21.71,43.33-4.36,8.77-7.85,17.85-10.65,29.83Z"/>
        <path class="cls-1" d="M351.43,520.62c-11.52.7-21.29,1.32-31.06,1.87-11.1.63-15.7-3.57-17.02-15.42-1.27-11.46,2.56-16.74,13.92-18.07,6.61-.77,13.33-.99,19.99-.82,17.47.43,34.9,1.54,52.41.72,11.7-.55,15.75,3.16,19.65,14.04,3.52,9.81-.68,16.66-8.11,22.15-31.37,23.19-62.53,46.68-96.42,66.25-2.54,1.47-6.9,2.46-5.39,6.56,1.77,4.81,6,3.42,9.78,2.38,16.54-4.55,33.07-9.11,49.63-13.54,8.25-2.21,19.06,3.21,21.28,11.25,1.85,6.67-2.89,10.76-8.1,13.49-11.59,6.06-24.08,9.9-36.7,13.17-14.14,3.66-28.39,6.87-42.55,10.44-11.78,2.96-22.17.88-30.46-8.28-8.31-9.18-9.23-19.67-4.83-30.98,4.14-10.66,10.47-19.4,20.46-25.42,19.32-11.62,38.58-23.33,57.76-35.17,5.57-3.44,11.29-6.9,15.76-14.63Z"/>
        <path class="cls-1" d="M634.61,538.82c.98,10.86-4.56,19.05-13.84,25.48-11.99,8.31-25.95,11.71-39.51,16.12-2.3.75-5.56.36-5.96,3.65-.37,3.1,2.71,3.93,4.65,5.42,11.05,8.48,24.39,10.24,37.5,12.6,7.68,1.39,15.46,2.23,15.49,12.93.03,10.68-5.86,18.53-15.96,20.57-6.23,1.26-11.87-.86-17.71-2.46-18.54-5.1-36.4-11.51-50.7-24.99-3.59-3.38-5.09-2.09-6.74,1.67-2.41,5.49-4.66,11.13-9.56,15.11-4.23,3.44-9.03,4.78-14.26,3.32-5.62-1.57-6.35-6.67-7.06-11.35-1.01-6.65-.42-13.18,2.08-19.57,8.64-22.1,17.13-44.27,25.69-66.4,2.21-5.72,4.8-10.64,12.52-7.36,3.35,1.42,5.21-1.49,7.17-3.45,7.83-7.87,15.45-15.95,23.44-23.65,15.24-14.69,23.94-14.28,38.26,1.39,9.3,10.18,14.34,24.13,14.49,40.98ZM567.59,552.35c12.29-1.28,22.19-5.19,31.7-10.1,4.43-2.29,2.64-5.95.59-8.87-2.15-3.05-3.55-9.44-8.65-6.28-9.54,5.91-18.33,13.1-23.64,25.25Z"/>
        <path class="cls-1" d="M425.18,630.15c-1.27,0-2.55-.05-3.81,0-25.15,1.24-35.81-9.53-29.48-39.12,3.12-14.6,13.93-25.41,21.86-37.53,4.25-6.49,5.54-12,3.72-20.05-4.61-20.4.66-26.62,18.27-31.03,24.69-6.19,49.5-11.04,74.68-14.28,2.79-.36,5.85-.49,8.49.28,6.29,1.83,12.29,5.3,14.03,11.68,1.86,6.82-4.13,10.66-8.86,14.38-3.28,2.58-7.05,4.73-11.16,5.06-16.92,1.37-32.52,8.51-49.19,10.9-2.47.35-4.9,1.31-7.22,2.3-2.21.95-3.52,2.75-2.99,5.32.59,2.83,2.88,3.14,5.17,3.01,7.29-.42,14.56-1.08,21.85-1.42,5.6-.26,19.62,11.58,20.19,16.9.42,3.91-2.84,5.32-5.3,7.17-14.03,10.48-30,12.98-46.97,11.03-8.59-.99-22.71,8.98-23.17,17.04-.31,5.43,4.43,4.53,7.62,4.36,16.17-.86,32.31-2.36,48.15-5.8,8.76-1.9,14.76,1.81,19.81,8.08,3.18,3.96,3.18,7.93-.43,11.94-6.59,7.31-14.46,12.31-24.2,14.16-16.87,3.21-33.88,5.18-51.06,5.61Z"/>
        <path class="cls-7" d="M1180.96,585.98c-9.03,8.59-14.27,17.13-17.89,26.69-2.22,5.87-5.78,10.53-11.46,13.37-4.73,2.37-9.46,6.16-14.89,1.71-5.78-4.75-8.87-10.69-7.01-18.39,1.29-5.31,3.94-10,6.88-14.52,15.35-23.63,30.83-47.17,46.11-70.84,4.9-7.59,10.98-12.69,20.39-13.89,8.9-1.14,14.29-7.67,19.11-14.52,3.89-5.53,7.83-9.69,15.72-6.1,8.5,3.87,18.82,4.95,16.38,18.72-2.44,13.77-.81,27.74,0,41.63.29,4.98,2.09,7.67,7.36,7.7,3.63.02,6.68,1.85,9.52,3.95,8.38,6.22,8.42,7.74.07,14.34-8.4,6.64-13.23,15.43-14.62,25.79-2.11,15.76-12.41,23.38-26.31,27.89-6.9,2.24-11.84.42-14.34-6.67-.11-.3-.2-.61-.37-.87-5.43-7.93-8.18-14.87,5.09-17.77,3.21-.7,5.18-4.02,3.51-7.59-1.68-3.58-4.84-1.81-7.54-1.32-6.24,1.12-12.45,2.45-18.72,3.28-8.55,1.14-16.28.49-16.98-12.59ZM1193.18,567.7c27.06.37,30.06-2.11,27.21-21.07-.09-.62-.16-1.25-.26-1.88-.85-4.91-3.11-4.78-6.27-1.78-7.52,7.16-14.49,14.75-20.67,24.73Z"/>
        <path class="cls-1" d="M808.74,685.84c28.89-6.25,55.64-16.97,78.31-36.54,4.76-4.11,8.31-9.59,14.22-12.38.64,2.44-.67,4.23-1.96,6.08-26.58,38.33-61.47,63.69-109.66,64.36-52.44.73-95.24-20.55-125.81-63.24-15.87-22.16-14.81-47.89-9-73.24,11.69-50.99,45-82.17,93.29-99.21.84-.3,1.88,0,2.83.02-18.08,10.45-36.31,20.66-50.49,36.48-24.79,27.65-36.41,59.71-31.74,96.78,2.64,20.96,15.69,36.16,30.57,49.98,18.7,29.58,59.17,46.76,93.01,39.31,6.12-1.35,12.44-2.72,16.44-8.39Z"/>
        <path class="cls-2" d="M697.56,563.99c3.8-21.64,15.8-38.91,29.66-55.19,1.63-1.91,3.3-3.79,4.94-5.69,1.23-.58,3.62,1.17,3.65-1.81,0,0-.15.04-.15.04,3.38,2.39,5.95-.56,8.58-1.6,16.34-6.43,33.17-8.07,50.48-5.81,2.7.35,6.27-.36,6.99,3.38.65,3.39-1.04,6.45-4.14,7.82-6.78,3-8.62,6.94-3.68,13.09,1.07,1.33,1.11,3-.48,4.12-1.65,1.17-3.01.27-4.01-1.06-1.32-1.77-2.37-3.89-4.74-4.38-2.13-.44-4.64-1.22-6.29.62-1.35,1.51-.23,3.43.41,5.25,6.76,19.02,6.78,19.11-10.41,30.72-2.48,1.67-3.01,8.56-9.38,3.12-1.68-1.44-1.96,5.05-.08,7.9,3.26,4.94,6.65,9.79.35,14.86-1.16.93-2.66,1.45-4,2.15-2.14-7.01-13.3-.69-15.02-10.61-.54-3.14-6.78-7.69-10.17-11.86-2.29-2.82-5.46-1.93-7.37.58-5.56,7.29-14.32,12.83-13.67,23.7.1,1.62-.08,3.36-2.27,3.27-1.89-.07-2.4-1.81-2.95-3.26-2.41-6.35-1.5-13.77-6.27-19.37Z"/>
        <path class="cls-1" d="M810.04,446.48c-3.95-4.35-7.89-8.7-12.22-13.46,8.62-1.69,16.83.26,24.79,2.89,24.29,8.01,45.22,21.43,62.22,40.45,32.85,36.74,29.55,94.47,2.93,132.06-.67.94-2.06,1.38-3.12,2.05-2.54-1.64-1.42-3.43-.67-5.68,21.32-63.27-4.55-126.41-63.91-156.36-3.21-1.62-6.4-2.75-10.03-1.94Z"/>
        <path class="cls-2" d="M840.99,653.78c-21.04,17.68-44.95,24.94-72.3,19.8-1.59-15.62-1.54-15.52,12.13-23.2,2.98-1.68,6.58-3.83,7.85-6.66,3.89-8.71,15.66-5.64,19.94-13.88.48-.92,9.22-1.47,9.42,4.02.17,4.74.4,8.97,5.25,9.35,6.29.5,3.36-6.23,5.49-9.22.53-.74.72-1.71,1.32-3.19,6.1,6.85,5.21,16.52,10.89,22.98Z"/>
        <path class="cls-1" d="M818.82,381.36c-12.35,13.68-26.57,25.41-40.21,37.72-6.14,5.54-6.64,9.85-.76,15.62,8.83,8.65,17.3,17.67,25.92,26.53,1.16,5.43,5.89,8.05,9.39,11.57,3.62,3.63,3.86,6.74.12,10.49-3.73,3.74-6.88,3.68-10.46-.09-15.48-16.29-30.99-32.54-46.61-48.7-3.59-3.72-3.96-6.76.28-10.23,17.63-14.45,35.21-28.97,52.72-43.56,3.61-3,6.66-3.33,9.61.65Z"/>
        <path class="cls-2" d="M847.86,616.3c-3.53,1.69-10.48,1.38-4.47,9.14-5.8-1.49-9.49-4.16-13.69-1.65-.74.44-2.45.71-2.65.4-4.56-7.29-12.83-10.6-18.18-16.99-.34-.4-.03-1.97.46-2.31,1.46-1.01,2.89.31,4.32.47,11.74,1.32,21.66,8.73,34.21,10.95Z"/>
        <path class="cls-2" d="M759.44,619.82c-12.77-5.07-15.16-18.55-23.53-27.17,4.48-3.82,5.91,2.11,9.08,1.35,2.38-3.97-2.87-6.5-1.86-10.83,6.36,3.56,9.03,8.9,10.44,15.63,1.42,6.74,2.55,13.8,7.53,19.24-.56.59-1.11,1.18-1.66,1.77Z"/>
        <path class="cls-2" d="M781.43,605.91c-3.19.49-3.5,4.52-6.29,5.26-4.44,1.18-8.22-.45-10.74-4.11-2.7-3.92-1.46-7.29,2.71-9.31,5.02-2.43,7.58-11.34,13.25-8.81,4.83,2.15-1.27,9.37.52,14.32.31.86.29,1.84.42,2.77l.13-.11Z"/>
        <path class="cls-2" d="M798.2,528.55c-1.98-4.53,1.95-5.92,5.02-7.91,4.62-3,8.64-5.78,5.52-12.78-2.65-5.94,2.8-4.24,4.93-4.61,2.35,12.87.44,23.43-15.46,25.3Z"/>
        <path class="cls-2" d="M787.87,559.03c-.99,10.31,8.16,13.54,9.53,21.15.55,3.05,2.76,6.86-1.37,7.94-3.14.82-5.84-2.37-5.82-5.91.03-4.6-4.04-6.98-5.18-10.89-1.05-3.62-2.58-7.17,2.83-12.29Z"/>
        <path class="cls-2" d="M781.3,606.02c2.99-.55,5.28-3.87,9.09-1.46,2.46,1.55.81,2.44.29,3.65-1.07,2.48,3.21,6.98-2.27,7.57-5.35.58-5.73-3.65-5.83-7.68-.02-.74-.74-1.46-1.15-2.19,0,0-.14.12-.14.12Z"/>
        <path class="cls-2" d="M759.44,619.82c.55-.59,1.1-1.18,1.66-1.77,7.3-1.8,12.94,2.91,19.27,5.2-7.08-.53-14.42.82-20.93-3.42Z"/>
        <path class="cls-2" d="M735.82,501.31c-.03,2.98-2.42,1.23-3.65,1.81.58-1.88,1.98-2.1,3.65-1.81Z"/>
        <text class="cls-4" transform="translate(953.76 740.86) scale(.97 1)"><tspan x="0" y="0" xml:space="preserve">FESTI   L</tspan></text>
      </g>
      <path class="cls-5" d="M1257.97,653.36c-27.55-.23-55.09-.06-82.59,1.9-15.55,1.11-31.06,2.67-46.31,6.09-3.18.71-6.42-1.35-7.02-4.34-.46-2.27,1.89-5.17,4.81-5.85,10.78-2.5,21.73-4.07,32.73-5.05,27.73-2.46,55.53-3.79,83.38-3.7,28.53.1,57.02,1.52,85.52,2.65,15.88.63,31.75,1.51,47.59,2.75,5.45.43,10.8,2.12,16.18,3.32,15.19,3.38,30.48,6.43,44.98,12.36,1.36.56,2.73,1.16,3.97,1.95,5.12,3.28,6.23,7.31,4.02,15.16-3.57,12.67-9.24,24.48-15.25,36.13-3.89,7.54-7.93,15-13.47,21.5-3.3,3.87-6.2,4.83-9.77,3.47-1.74-.67-2.94-1.91-3.93-3.43-5.65-8.65-9.11-18.32-12.83-27.85-6.33-16.23-12.02-32.7-17.46-49.25-.64-1.95-1.23-3.41-3.87-3.57-36.86-2.18-73.74-3.8-110.67-4.24Z"/>
    </g>
  </g>
</svg>